Real estate broker and former boxer enters an old cinema in the decadent downtown São Paulo and meets an intriguing and mysterious woman, very much alike the leading lady of the film. He gets involved with her and her problems and in no time is being accused of a crime."

   General
      Complete name : A Dama do Cine Shanghai (1987).avi
      Format : AVI
      Format/Info : Audio Video Interleave
      File size : 1.17 GiB
      Duration : 1h 56mn
      Overall bit rate : 1 436 Kbps
      Writing application : FairUse Wizard - http://fairusewizard.com
      Writing library : The best and REALLY easy backup tool
   Video #0
      ID : 0
      Format : MPEG-4 Visual
      Format profile : AdvancedSimple@L5
      Format settings, BVOP : Yes
      Format settings, QPel : No
      Format settings, GMC : No warppoints
      Format settings, Matrix : Default (MPEG)
      Muxing mode : Packed bitstream
      Codec ID : XVID
      Codec ID/Hint : XviD
      Duration : 1h 56mn
      Bit rate : 1 299 Kbps
      Width : 624 pixels
      Height : 448 pixels
      Display aspect ratio : 1.393
      Frame rate : 23.976 fps
      Resolution : 24 bits
      Colorimetry : 4:2:0
      Scan type : Progressive
      Bits/(Pixel*Frame) : 0.194
      Stream size : 1.06 GiB (90%)
      Writing library : XviD 1.2.0.dev47 (UTC 2006-11-01)
   Audio #1
      ID : 1
      Format : MPEG Audio
      Format version : Version 1
      Format profile : Layer 3
      Codec ID : 55
      Codec ID/Hint : MP3
      Duration : 1h 56mn
      Bit rate mode : Constant
      Bit rate : 128 Kbps
      Channel(s) : 2 channels
      Sampling rate : 48.0 KHz
      Resolution : 16 bits
      Stream size : 107 MiB (9%)
      Alignment : Aligned on interleaves
      Interleave, duration : 42 ms (1.00 video frame)
      Interleave, preload duration : 504 ms
      Writing library : LAME3.97 
      Encoding settings : -m j -V 4 -q 2 -lowpass 17 -b 128
 
http://www.imdb.com/title/tt0092818/

Portuguese audio; no subtitles

Posted originally at KG by dnaugusto, whom we thank

Guilherme de Almeida Prado - A Dama do Cine Shanghai (1987)